<?xml version="1.0" encoding="UTF-8" standalone="no"?>
<!DOCTYPE svg PUBLIC "-//W3C//DTD SVG 1.1//EN"
 "http://www.w3.org/Graphics/SVG/1.1/DTD/svg11.dtd">
<!-- Generated by graphviz version 13.1.2 (20250808.2320)
 -->
<!-- Pages: 1 -->
<svg width="653pt" height="718pt"
 viewBox="0.00 0.00 653.00 718.00" xmlns="http://www.w3.org/2000/svg" xmlns:xlink="http://www.w3.org/1999/xlink">
<g id="graph0" class="graph" transform="scale(1 1) rotate(0) translate(4 714)">
<polygon fill="white" stroke="none" points="-4,4 -4,-714 649,-714 649,4 -4,4"/>
<!-- Mizen -->
<g id="node1" class="node">
<title>Mizen</title>
<g id="a_node1"><a xlink:title="База для: отрицания (〜ない), волевой (〜う/よう), потенциала (〜れる/られる), пассива (〜れる/られる), каузатива (〜せる/させる).">
<path fill="#dddddd" stroke="lightgrey" d="M130,-150C130,-150 18,-150 18,-150 12,-150 6,-144 6,-138 6,-138 6,-124 6,-124 6,-118 12,-112 18,-112 18,-112 130,-112 130,-112 136,-112 142,-118 142,-124 142,-124 142,-138 142,-138 142,-144 136,-150 130,-150"/>
<text xml:space="preserve" text-anchor="middle" x="74" y="-134.6" font-family="Noto Sans JP" font-size="12.00">未然形（みぜんけい）</text>
<text xml:space="preserve" text-anchor="middle" x="74" y="-119.6" font-family="Noto Sans JP" font-size="12.00">незавершённая</text>
</a>
</g>
</g>
<!-- Neg -->
<g id="node7" class="node">
<title>Neg</title>
<g id="a_node7"><a xlink:title="Отрицательная форма: «не …». Образование: 未然形 + ない. Используется и как база для «обязан»: 〜なければならない/なりません.">
<path fill="#f4a6a6" stroke="lightgrey" d="M306.5,-262C306.5,-262 208,-262 208,-262 202,-262 196,-256 196,-250 196,-250 196,-236 196,-236 196,-230 202,-224 208,-224 208,-224 306.5,-224 306.5,-224 312.5,-224 318.5,-230 318.5,-236 318.5,-236 318.5,-250 318.5,-250 318.5,-256 312.5,-262 306.5,-262"/>
<text xml:space="preserve" text-anchor="middle" x="257.25" y="-246.6" font-family="Noto Sans JP" font-size="12.00">行かない / 食べない</text>
<text xml:space="preserve" text-anchor="middle" x="257.25" y="-231.6" font-family="Noto Sans JP" font-size="12.00">(否定・ひてい)</text>
</a>
</g>
</g>
<!-- Mizen&#45;&gt;Neg -->
<g id="edge1" class="edge">
<title>Mizen&#45;&gt;Neg</title>
<g id="a_edge1"><a xlink:title="未然形 → 否定（〜ない）">
<path fill="none" stroke="black" d="M96.23,-150.36C117.3,-168.81 151.11,-196.47 184,-215 186.19,-216.23 188.45,-217.44 190.74,-218.61"/>
<polygon fill="black" stroke="black" points="189.14,-221.72 199.68,-222.87 192.16,-215.4 189.14,-221.72"/>
</a>
</g>
</g>
<!-- Vol -->
<g id="node8" class="node">
<title>Vol</title>
<g id="a_node8"><a xlink:title="Волевая форма: предложение/намерение «давай…», «сделаю&#45;ка…». 五段: 〜う, 一段: 〜よう.">
<path fill="#9ec9f5" stroke="lightgrey" d="M311,-206C311,-206 203.5,-206 203.5,-206 197.5,-206 191.5,-200 191.5,-194 191.5,-194 191.5,-180 191.5,-180 191.5,-174 197.5,-168 203.5,-168 203.5,-168 311,-168 311,-168 317,-168 323,-174 323,-180 323,-180 323,-194 323,-194 323,-200 317,-206 311,-206"/>
<text xml:space="preserve" text-anchor="middle" x="257.25" y="-190.6" font-family="Noto Sans JP" font-size="12.00">行こう / 食べよう</text>
<text xml:space="preserve" text-anchor="middle" x="257.25" y="-175.6" font-family="Noto Sans JP" font-size="12.00">(意向形・いこうけい)</text>
</a>
</g>
</g>
<!-- Mizen&#45;&gt;Vol -->
<g id="edge2" class="edge">
<title>Mizen&#45;&gt;Vol</title>
<g id="a_edge2"><a xlink:title="未然形 → 意向形（〜う/よう）">
<path fill="none" stroke="black" d="M137.88,-150.43C152.28,-154.88 167.71,-159.65 182.52,-164.22"/>
<polygon fill="black" stroke="black" points="181.14,-167.46 191.72,-167.06 183.2,-160.77 181.14,-167.46"/>
</a>
</g>
</g>
<!-- Pot -->
<g id="node9" class="node">
<title>Pot</title>
<g id="a_node9"><a xlink:title="Потенциал («могу …»). 五段: 語幹+える (行ける), 一段: 〜られる (食べられる). Разг. у 一段: ら抜き → 食べれる.">
<path fill="#a9e5a9" stroke="lightgrey" d="M311,-150C311,-150 203.5,-150 203.5,-150 197.5,-150 191.5,-144 191.5,-138 191.5,-138 191.5,-124 191.5,-124 191.5,-118 197.5,-112 203.5,-112 203.5,-112 311,-112 311,-112 317,-112 323,-118 323,-124 323,-124 323,-138 323,-138 323,-144 317,-150 311,-150"/>
<text xml:space="preserve" text-anchor="middle" x="257.25" y="-134.6" font-family="Noto Sans JP" font-size="12.00">行ける / 食べられる</text>
<text xml:space="preserve" text-anchor="middle" x="257.25" y="-119.6" font-family="Noto Sans JP" font-size="12.00">(可能形・かのうけい)</text>
</a>
</g>
</g>
<!-- Mizen&#45;&gt;Pot -->
<g id="edge3" class="edge">
<title>Mizen&#45;&gt;Pot</title>
<g id="a_edge3"><a xlink:title="未然形 → 可能形（〜れる/られる）">
<path fill="none" stroke="black" d="M142.49,-131C154.67,-131 167.44,-131 179.85,-131"/>
<polygon fill="black" stroke="black" points="179.6,-134.5 189.6,-131 179.6,-127.5 179.6,-134.5"/>
</a>
</g>
</g>
<!-- Pas -->
<g id="node10" class="node">
<title>Pas</title>
<g id="a_node10"><a xlink:title="Пассив: «подвергаться действию». 行かれる/食べられる.">
<path fill="#f2e29f" stroke="lightgrey" d="M312.5,-94C312.5,-94 202,-94 202,-94 196,-94 190,-88 190,-82 190,-82 190,-68 190,-68 190,-62 196,-56 202,-56 202,-56 312.5,-56 312.5,-56 318.5,-56 324.5,-62 324.5,-68 324.5,-68 324.5,-82 324.5,-82 324.5,-88 318.5,-94 312.5,-94"/>
<text xml:space="preserve" text-anchor="middle" x="257.25" y="-78.6" font-family="Noto Sans JP" font-size="12.00">行かれる / 食べられる</text>
<text xml:space="preserve" text-anchor="middle" x="257.25" y="-63.6" font-family="Noto Sans JP" font-size="12.00">(受身形・うけみけい)</text>
</a>
</g>
</g>
<!-- Mizen&#45;&gt;Pas -->
<g id="edge4" class="edge">
<title>Mizen&#45;&gt;Pas</title>
<g id="a_edge4"><a xlink:title="未然形 → 受身形（〜れる/られる）">
<path fill="none" stroke="black" d="M137.88,-111.57C152.28,-107.12 167.71,-102.35 182.52,-97.78"/>
<polygon fill="black" stroke="black" points="183.2,-101.23 191.72,-94.94 181.14,-94.54 183.2,-101.23"/>
</a>
</g>
</g>
<!-- Caus -->
<g id="node11" class="node">
<title>Caus</title>
<g id="a_node11"><a xlink:title="Каузатив: «заставить/позволить …». 行かせる/食べさせる.">
<path fill="#d9a6e8" stroke="lightgrey" d="M312.5,-38C312.5,-38 202,-38 202,-38 196,-38 190,-32 190,-26 190,-26 190,-12 190,-12 190,-6 196,0 202,0 202,0 312.5,0 312.5,0 318.5,0 324.5,-6 324.5,-12 324.5,-12 324.5,-26 324.5,-26 324.5,-32 318.5,-38 312.5,-38"/>
<text xml:space="preserve" text-anchor="middle" x="257.25" y="-22.6" font-family="Noto Sans JP" font-size="12.00">行かせる / 食べさせる</text>
<text xml:space="preserve" text-anchor="middle" x="257.25" y="-7.6" font-family="Noto Sans JP" font-size="12.00">(使役形・しえきけい)</text>
</a>
</g>
</g>
<!-- Mizen&#45;&gt;Caus -->
<g id="edge5" class="edge">
<title>Mizen&#45;&gt;Caus</title>
<g id="a_edge5"><a xlink:title="未然形 → 使役形（〜せる/させる）">
<path fill="none" stroke="black" d="M96.23,-111.64C117.3,-93.19 151.11,-65.53 184,-47 186.19,-45.77 188.45,-44.56 190.74,-43.39"/>
<polygon fill="black" stroke="black" points="192.16,-46.6 199.68,-39.13 189.14,-40.28 192.16,-46.6"/>
</a>
</g>
</g>
<!-- Renyou -->
<g id="node2" class="node">
<title>Renyou</title>
<g id="a_node2"><a xlink:title="База для: ます&#45;формы, たい, て/た и сложных глагольных конструкций.">
<path fill="#dddddd" stroke="lightgrey" d="M136,-430C136,-430 12,-430 12,-430 6,-430 0,-424 0,-418 0,-418 0,-404 0,-404 0,-398 6,-392 12,-392 12,-392 136,-392 136,-392 142,-392 148,-398 148,-404 148,-404 148,-418 148,-418 148,-424 142,-430 136,-430"/>
<text xml:space="preserve" text-anchor="middle" x="74" y="-414.6" font-family="Noto Sans JP" font-size="12.00">連用形（れんようけい）</text>
<text xml:space="preserve" text-anchor="middle" x="74" y="-399.6" font-family="Noto Sans JP" font-size="12.00">соединительная</text>
</a>
</g>
</g>
<!-- Masu -->
<g id="node12" class="node">
<title>Masu</title>
<g id="a_node12"><a xlink:title="Вежливая форма 〜ます. Основана на 連用形.">
<path fill="#f3e39c" stroke="lightgrey" d="M306.5,-542C306.5,-542 208,-542 208,-542 202,-542 196,-536 196,-530 196,-530 196,-516 196,-516 196,-510 202,-504 208,-504 208,-504 306.5,-504 306.5,-504 312.5,-504 318.5,-510 318.5,-516 318.5,-516 318.5,-530 318.5,-530 318.5,-536 312.5,-542 306.5,-542"/>
<text xml:space="preserve" text-anchor="middle" x="257.25" y="-526.6" font-family="Noto Sans JP" font-size="12.00">行きます / 食べます</text>
<text xml:space="preserve" text-anchor="middle" x="257.25" y="-511.6" font-family="Noto Sans JP" font-size="12.00">(ます形)</text>
</a>
</g>
</g>
<!-- Renyou&#45;&gt;Masu -->
<g id="edge6" class="edge">
<title>Renyou&#45;&gt;Masu</title>
<g id="a_edge6"><a xlink:title="連用形 → ます形">
<path fill="none" stroke="black" d="M96.23,-430.36C117.3,-448.81 151.11,-476.47 184,-495 186.19,-496.23 188.45,-497.44 190.74,-498.61"/>
<polygon fill="black" stroke="black" points="189.14,-501.72 199.68,-502.87 192.16,-495.4 189.14,-501.72"/>
</a>
</g>
</g>
<!-- Tai -->
<g id="node13" class="node">
<title>Tai</title>
<g id="a_node13"><a xlink:title="Желание «хочу …» (〜たい). Обычно о первом лице/собственном желании.">
<path fill="#f7b6c4" stroke="lightgrey" d="M306.5,-486C306.5,-486 208,-486 208,-486 202,-486 196,-480 196,-474 196,-474 196,-460 196,-460 196,-454 202,-448 208,-448 208,-448 306.5,-448 306.5,-448 312.5,-448 318.5,-454 318.5,-460 318.5,-460 318.5,-474 318.5,-474 318.5,-480 312.5,-486 306.5,-486"/>
<text xml:space="preserve" text-anchor="middle" x="257.25" y="-470.6" font-family="Noto Sans JP" font-size="12.00">行きたい / 食べたい</text>
<text xml:space="preserve" text-anchor="middle" x="257.25" y="-455.6" font-family="Noto Sans JP" font-size="12.00">(たい形)</text>
</a>
</g>
</g>
<!-- Renyou&#45;&gt;Tai -->
<g id="edge7" class="edge">
<title>Renyou&#45;&gt;Tai</title>
<g id="a_edge7"><a xlink:title="連用形 → たい形">
<path fill="none" stroke="black" d="M137.88,-430.43C153.09,-435.13 169.44,-440.18 185,-444.99"/>
<polygon fill="black" stroke="black" points="183.58,-448.21 194.17,-447.82 185.65,-441.52 183.58,-448.21"/>
</a>
</g>
</g>
<!-- Sugiru -->
<g id="node14" class="node">
<title>Sugiru</title>
<g id="a_node14"><a xlink:title="«Слишком …» (〜すぎる). Присоединяется к 連用形.">
<path fill="#cfeff0" stroke="lightgrey" d="M318.5,-430C318.5,-430 196,-430 196,-430 190,-430 184,-424 184,-418 184,-418 184,-404 184,-404 184,-398 190,-392 196,-392 196,-392 318.5,-392 318.5,-392 324.5,-392 330.5,-398 330.5,-404 330.5,-404 330.5,-418 330.5,-418 330.5,-424 324.5,-430 318.5,-430"/>
<text xml:space="preserve" text-anchor="middle" x="257.25" y="-414.6" font-family="Noto Sans JP" font-size="12.00">行きすぎる / 食べすぎる</text>
<text xml:space="preserve" text-anchor="middle" x="257.25" y="-399.6" font-family="Noto Sans JP" font-size="12.00">(すぎる)</text>
</a>
</g>
</g>
<!-- Renyou&#45;&gt;Sugiru -->
<g id="edge8" class="edge">
<title>Renyou&#45;&gt;Sugiru</title>
<g id="a_edge8"><a xlink:title="連用形 → 〜すぎる">
<path fill="none" stroke="black" d="M148.46,-411C156.24,-411 164.19,-411 172.08,-411"/>
<polygon fill="black" stroke="black" points="172.05,-414.5 182.05,-411 172.05,-407.5 172.05,-414.5"/>
</a>
</g>
</g>
<!-- Te -->
<g id="node15" class="node">
<title>Te</title>
<g id="a_node15"><a xlink:title="て&#45;форма: связь действий, просьба (〜てください), прогрессив (〜ている), разрешение/запрет (〜てもいい/〜てはいけない) и др.">
<path fill="#ffd1a9" stroke="lightgrey" d="M293.75,-374C293.75,-374 220.75,-374 220.75,-374 214.75,-374 208.75,-368 208.75,-362 208.75,-362 208.75,-348 208.75,-348 208.75,-342 214.75,-336 220.75,-336 220.75,-336 293.75,-336 293.75,-336 299.75,-336 305.75,-342 305.75,-348 305.75,-348 305.75,-362 305.75,-362 305.75,-368 299.75,-374 293.75,-374"/>
<text xml:space="preserve" text-anchor="middle" x="257.25" y="-358.6" font-family="Noto Sans JP" font-size="12.00">行って / 食べて</text>
<text xml:space="preserve" text-anchor="middle" x="257.25" y="-343.6" font-family="Noto Sans JP" font-size="12.00">(て形)</text>
</a>
</g>
</g>
<!-- Renyou&#45;&gt;Te -->
<g id="edge9" class="edge">
<title>Renyou&#45;&gt;Te</title>
<g id="a_edge9"><a xlink:title="連用形 → て形">
<path fill="none" stroke="black" d="M137.88,-391.57C157.2,-385.6 178.38,-379.06 197.41,-373.18"/>
<polygon fill="black" stroke="black" points="198.37,-376.54 206.9,-370.25 196.31,-369.86 198.37,-376.54"/>
</a>
</g>
</g>
<!-- Ta -->
<g id="node16" class="node">
<title>Ta</title>
<g id="a_node16"><a xlink:title="Прошедшее/совершённость: 〜た/〜だ. Формируется от て&#45;формы.">
<path fill="#ffbea3" stroke="lightgrey" d="M294.5,-318C294.5,-318 220,-318 220,-318 214,-318 208,-312 208,-306 208,-306 208,-292 208,-292 208,-286 214,-280 220,-280 220,-280 294.5,-280 294.5,-280 300.5,-280 306.5,-286 306.5,-292 306.5,-292 306.5,-306 306.5,-306 306.5,-312 300.5,-318 294.5,-318"/>
<text xml:space="preserve" text-anchor="middle" x="257.25" y="-302.6" font-family="Noto Sans JP" font-size="12.00">行った / 食べた</text>
<text xml:space="preserve" text-anchor="middle" x="257.25" y="-287.6" font-family="Noto Sans JP" font-size="12.00">(た形)</text>
</a>
</g>
</g>
<!-- Renyou&#45;&gt;Ta -->
<g id="edge10" class="edge">
<title>Renyou&#45;&gt;Ta</title>
<g id="a_edge10"><a xlink:title="連用形 → た形">
<path fill="none" stroke="black" d="M96.23,-391.64C117.3,-373.19 151.11,-345.53 184,-327 188.27,-324.59 192.78,-322.31 197.39,-320.15"/>
<polygon fill="black" stroke="black" points="198.45,-323.51 206.18,-316.27 195.62,-317.11 198.45,-323.51"/>
</a>
</g>
</g>
<!-- Shuushi -->
<g id="node3" class="node">
<title>Shuushi</title>
<g id="a_node3"><a xlink:title="Словарная/финальная форма. Часто конец предложения.">
<path fill="#dddddd" stroke="lightgrey" d="M136,-598C136,-598 12,-598 12,-598 6,-598 0,-592 0,-586 0,-586 0,-572 0,-572 0,-566 6,-560 12,-560 12,-560 136,-560 136,-560 142,-560 148,-566 148,-572 148,-572 148,-586 148,-586 148,-592 142,-598 136,-598"/>
<text xml:space="preserve" text-anchor="middle" x="74" y="-582.6" font-family="Noto Sans JP" font-size="12.00">終止形（しゅうしけい）</text>
<text xml:space="preserve" text-anchor="middle" x="74" y="-567.6" font-family="Noto Sans JP" font-size="12.00">конечная</text>
</a>
</g>
</g>
<!-- Dict -->
<g id="node18" class="node">
<title>Dict</title>
<g id="a_node18"><a xlink:title="Словарная (終止形) и определительная (連体形) формы: базовый вид; перед сущ.: 行く人/食べる人.">
<path fill="#ffffff" stroke="lightgrey" d="M288.5,-598C288.5,-598 226,-598 226,-598 220,-598 214,-592 214,-586 214,-586 214,-572 214,-572 214,-566 220,-560 226,-560 226,-560 288.5,-560 288.5,-560 294.5,-560 300.5,-566 300.5,-572 300.5,-572 300.5,-586 300.5,-586 300.5,-592 294.5,-598 288.5,-598"/>
<text xml:space="preserve" text-anchor="middle" x="257.25" y="-582.6" font-family="Noto Sans JP" font-size="12.00">行く / 食べる</text>
<text xml:space="preserve" text-anchor="middle" x="257.25" y="-567.6" font-family="Noto Sans JP" font-size="12.00">(終止・連体)</text>
</a>
</g>
</g>
<!-- Shuushi&#45;&gt;Dict -->
<g id="edge12" class="edge">
<title>Shuushi&#45;&gt;Dict</title>
<g id="a_edge12"><a xlink:title="終止形 → словарная форма">
<path fill="none" stroke="black" d="M148.46,-579C166.48,-579 185.44,-579 202.34,-579"/>
<polygon fill="black" stroke="black" points="202.17,-582.5 212.17,-579 202.17,-575.5 202.17,-582.5"/>
</a>
</g>
</g>
<!-- Rentaikei -->
<g id="node4" class="node">
<title>Rentaikei</title>
<g id="a_node4"><a xlink:title="Форма перед существительным (атрибутивная).">
<path fill="#dddddd" stroke="lightgrey" d="M136,-542C136,-542 12,-542 12,-542 6,-542 0,-536 0,-530 0,-530 0,-516 0,-516 0,-510 6,-504 12,-504 12,-504 136,-504 136,-504 142,-504 148,-510 148,-516 148,-516 148,-530 148,-530 148,-536 142,-542 136,-542"/>
<text xml:space="preserve" text-anchor="middle" x="74" y="-526.6" font-family="Noto Sans JP" font-size="12.00">連体形（れんたいけい）</text>
<text xml:space="preserve" text-anchor="middle" x="74" y="-511.6" font-family="Noto Sans JP" font-size="12.00">определительная</text>
</a>
</g>
</g>
<!-- Rentaikei&#45;&gt;Dict -->
<g id="edge13" class="edge">
<title>Rentaikei&#45;&gt;Dict</title>
<g id="a_edge13"><a xlink:title="連体形 → определительная форма">
<path fill="none" stroke="black" d="M137.88,-542.43C159.02,-548.96 182.38,-556.18 202.73,-562.46"/>
<polygon fill="black" stroke="black" points="201.66,-565.8 212.25,-565.4 203.72,-559.11 201.66,-565.8"/>
</a>
</g>
</g>
<!-- Katei -->
<g id="node5" class="node">
<title>Katei</title>
<g id="a_node5"><a xlink:title="База для условных конструкций с ば: 〜えば/〜れば («если…»).">
<path fill="#dddddd" stroke="lightgrey" d="M130,-654C130,-654 18,-654 18,-654 12,-654 6,-648 6,-642 6,-642 6,-628 6,-628 6,-622 12,-616 18,-616 18,-616 130,-616 130,-616 136,-616 142,-622 142,-628 142,-628 142,-642 142,-642 142,-648 136,-654 130,-654"/>
<text xml:space="preserve" text-anchor="middle" x="74" y="-638.6" font-family="Noto Sans JP" font-size="12.00">仮定形（かていけい）</text>
<text xml:space="preserve" text-anchor="middle" x="74" y="-623.6" font-family="Noto Sans JP" font-size="12.00">условная</text>
</a>
</g>
</g>
<!-- If -->
<g id="node19" class="node">
<title>If</title>
<g id="a_node19"><a xlink:title="Условная конструкция с ば: «если…». 五段: 語幹+えば, 一段: 語幹+れば.">
<path fill="#e8f7e8" stroke="lightgrey" d="M300.5,-654C300.5,-654 214,-654 214,-654 208,-654 202,-648 202,-642 202,-642 202,-628 202,-628 202,-622 208,-616 214,-616 214,-616 300.5,-616 300.5,-616 306.5,-616 312.5,-622 312.5,-628 312.5,-628 312.5,-642 312.5,-642 312.5,-648 306.5,-654 300.5,-654"/>
<text xml:space="preserve" text-anchor="middle" x="257.25" y="-638.6" font-family="Noto Sans JP" font-size="12.00">行けば / 食べれば</text>
<text xml:space="preserve" text-anchor="middle" x="257.25" y="-623.6" font-family="Noto Sans JP" font-size="12.00">(仮定形・ば)</text>
</a>
</g>
</g>
<!-- Katei&#45;&gt;If -->
<g id="edge14" class="edge">
<title>Katei&#45;&gt;If</title>
<g id="a_edge14"><a xlink:title="仮定形 → 〜ば">
<path fill="none" stroke="black" d="M142.49,-635C158.2,-635 174.91,-635 190.54,-635"/>
<polygon fill="black" stroke="black" points="190.19,-638.5 200.19,-635 190.19,-631.5 190.19,-638.5"/>
</a>
</g>
</g>
<!-- Meirei -->
<g id="node6" class="node">
<title>Meirei</title>
<g id="a_node6"><a xlink:title="Повелительная форма. Часто звучит резко; мягкие альтернативы: 〜てください, 〜なさい.">
<path fill="#dddddd" stroke="lightgrey" d="M136,-710C136,-710 12,-710 12,-710 6,-710 0,-704 0,-698 0,-698 0,-684 0,-684 0,-678 6,-672 12,-672 12,-672 136,-672 136,-672 142,-672 148,-678 148,-684 148,-684 148,-698 148,-698 148,-704 142,-710 136,-710"/>
<text xml:space="preserve" text-anchor="middle" x="74" y="-694.6" font-family="Noto Sans JP" font-size="12.00">命令形（めいれいけい）</text>
<text xml:space="preserve" text-anchor="middle" x="74" y="-679.6" font-family="Noto Sans JP" font-size="12.00">повелительная</text>
</a>
</g>
</g>
<!-- Imper -->
<g id="node20" class="node">
<title>Imper</title>
<g id="a_node20"><a xlink:title="Повелительная форма (резкая). Мягче: 〜てください, 〜なさい.">
<path fill="#b9c7e6" stroke="lightgrey" d="M288.5,-710C288.5,-710 226,-710 226,-710 220,-710 214,-704 214,-698 214,-698 214,-684 214,-684 214,-678 220,-672 226,-672 226,-672 288.5,-672 288.5,-672 294.5,-672 300.5,-678 300.5,-684 300.5,-684 300.5,-698 300.5,-698 300.5,-704 294.5,-710 288.5,-710"/>
<text xml:space="preserve" text-anchor="middle" x="257.25" y="-694.6" font-family="Noto Sans JP" font-size="12.00">行け / 食べろ</text>
<text xml:space="preserve" text-anchor="middle" x="257.25" y="-679.6" font-family="Noto Sans JP" font-size="12.00">(命令形)</text>
</a>
</g>
</g>
<!-- Meirei&#45;&gt;Imper -->
<g id="edge15" class="edge">
<title>Meirei&#45;&gt;Imper</title>
<g id="a_edge15"><a xlink:title="命令形">
<path fill="none" stroke="black" d="M148.46,-691C166.48,-691 185.44,-691 202.34,-691"/>
<polygon fill="black" stroke="black" points="202.17,-694.5 212.17,-691 202.17,-687.5 202.17,-694.5"/>
</a>
</g>
</g>
<!-- Nakereba -->
<g id="node17" class="node">
<title>Nakereba</title>
<g id="a_node17"><a xlink:title="«Должен …»: условие от отрицания (…なければ) + ならない/なりません. Разговорные сокращения: 〜なきゃ, 〜ないと.">
<path fill="#d8c6ea" stroke="lightgrey" d="M633,-262C633,-262 378.5,-262 378.5,-262 372.5,-262 366.5,-256 366.5,-250 366.5,-250 366.5,-236 366.5,-236 366.5,-230 372.5,-224 378.5,-224 378.5,-224 633,-224 633,-224 639,-224 645,-230 645,-236 645,-236 645,-250 645,-250 645,-256 639,-262 633,-262"/>
<text xml:space="preserve" text-anchor="middle" x="505.75" y="-246.6" font-family="Noto Sans JP" font-size="12.00">行かなければならない / 行かなければなりません</text>
<text xml:space="preserve" text-anchor="middle" x="505.75" y="-231.6" font-family="Noto Sans JP" font-size="12.00">食べなければならない / 食べなければなりません</text>
</a>
</g>
</g>
<!-- Neg&#45;&gt;Nakereba -->
<g id="edge11" class="edge">
<title>Neg&#45;&gt;Nakereba</title>
<g id="a_edge11"><a xlink:title="ない形 → なければならない/なりません">
<path fill="none" stroke="black" d="M318.87,-243C330.11,-243 342.31,-243 354.89,-243"/>
<polygon fill="black" stroke="black" points="354.52,-246.5 364.52,-243 354.52,-239.5 354.52,-246.5"/>
</a>
</g>
</g>
<!-- PotCasual -->
<g id="node21" class="node">
<title>PotCasual</title>
<g id="a_node21"><a xlink:title="Разговорный потенциал 一段: 食べられる → 食べれる. Отрицание: 食べれない. Уместен в разговоре; избегай в формальном письме.">
<path fill="#a9e5a9" stroke="lightgrey" d="M585,-150C585,-150 426.5,-150 426.5,-150 420.5,-150 414.5,-144 414.5,-138 414.5,-138 414.5,-124 414.5,-124 414.5,-118 420.5,-112 426.5,-112 426.5,-112 585,-112 585,-112 591,-112 597,-118 597,-124 597,-124 597,-138 597,-138 597,-144 591,-150 585,-150"/>
<text xml:space="preserve" text-anchor="middle" x="505.75" y="-134.6" font-family="Noto Sans JP" font-size="12.00">食べれる（口語） / 食べれない</text>
<text xml:space="preserve" text-anchor="middle" x="505.75" y="-119.6" font-family="Noto Sans JP" font-size="12.00">※ ら抜き言葉</text>
</a>
</g>
</g>
<!-- Pot&#45;&gt;PotCasual -->
<g id="edge16" class="edge">
<title>Pot&#45;&gt;PotCasual</title>
<g id="a_edge16"><a xlink:title="可能形（正式） → 口語（ら抜き）">
<path fill="none" stroke="black" stroke-dasharray="5,2" d="M323.34,-131C347.68,-131 375.94,-131 402.81,-131"/>
<polygon fill="black" stroke="black" points="402.71,-134.5 412.71,-131 402.71,-127.5 402.71,-134.5"/>
</a>
</g>
</g>
</g>
</svg>
